<?xml version="1.0" encoding="UTF-8" standalone="no"?> <svg xmlns="http://www.w3.org/2000/svg" viewBox="0 0 64 64"><g id="Layer_25" data-name="Layer 25"><path d="M57,12.91H53V10.09a1,1,0,0,0-2,0v2.82H45.07V10.09a1,1,0,1,0-2,0v2.82H37.13V10.09a1,1,0,1,0-2,0v2.82H29.2V10.09a1,1,0,0,0-2,0v2.82H21.27V10.09a1,1,0,0,0-2,0v2.82H15.58a4,4,0,0,0-4,4V47.85c-7.38-1-9.3-6.07-1.54-8.56a1,1,0,0,0-.6-1.91c-10.39,3.4-7,11.6,2.14,12.47v1.06a4,4,0,0,0,4,4H57a4,4,0,0,0,4-4v-34A4,4,0,0,0,57,12.91Zm2,38a2,2,0,0,1-2,2H15.58a2,2,0,0,1-2-2V50c4.34,0,8.75-1.59,11.23-4.2a1,1,0,0,0-1.45-1.38c-2.09,2.2-6,3.56-9.78,3.57V24.11H59Zm0-28.8H13.58v-5.2a2,2,0,0,1,2-2h3.69V17a1,1,0,0,0,2,0V14.91H27.2V17a1,1,0,0,0,2,0V14.91h5.93V17a1,1,0,1,0,2,0V14.91h5.94V17a1,1,0,1,0,2,0V14.91H51V17a1,1,0,0,0,2,0V14.91h4a2,2,0,0,1,2,2Z"/><path d="M20.85,38.9,30.94,46a1.55,1.55,0,0,0,.29.14.92.92,0,0,0,.69,0L55,36A3.07,3.07,0,0,0,55,30.39a3.25,3.25,0,0,0-2.54,0l-4.44,2L33.57,27.56a1,1,0,0,0-.72,0l-3.38,1.49a1,1,0,0,0-.06,1.8l10.14,5.2L32,39.42l-7.26-3.49a1,1,0,0,0-.83,0L21,37.17A1,1,0,0,0,20.85,38.9Zm3.41-1,7.26,3.49a1.58,1.58,0,0,0,.43.1l.4-.08,9.92-4.37a1.3,1.3,0,0,0,.33-.23,1,1,0,0,0-.27-1.58L32.2,30.06l1.1-.48,14.41,4.81a1.23,1.23,0,0,0,.76,0h0l4.74-2.09a1.1,1.1,0,0,1,1.53,1.33,1,1,0,0,1-.54.58L31.63,44.09l-8.18-5.8Z"/></g></svg>