<svg width="40" height="50" viewBox="0 0 40 50" fill="none" xmlns="http://www.w3.org/2000/svg">
<path d="M20 0C9 0 0 9.4 0 21C0 32.2 17.91 48.31 18.67 49C19.0363 49.3261 19.5096 49.5063 20 49.5063C20.4904 49.5063 20.9637 49.3261 21.33 49C22.09 48.31 40 32.2 40 21C40 9.4 31 0 20 0Z" fill="url(#paint0_linear_411_44)"/>
<path d="M20 10.47C18.1468 10.47 16.3352 11.0195 14.7943 12.0491C13.2534 13.0787 12.0525 14.5421 11.3433 16.2542C10.6341 17.9664 10.4485 19.8504 10.8101 21.668C11.1716 23.4856 12.064 25.1551 13.3744 26.4656C14.6848 27.776 16.3544 28.6684 18.172 29.0299C19.9896 29.3915 21.8736 29.2059 23.5858 28.4967C25.2979 27.7875 26.7613 26.5866 27.7909 25.0457C28.8205 23.5048 29.37 21.6932 29.37 19.84C29.3674 17.3557 28.3793 14.9739 26.6227 13.2173C24.866 11.4607 22.4843 10.4726 20 10.47Z" fill="url(#paint1_linear_411_44)"/>
<path d="M20 0C9 0 0 9.4 0 21C0 32.2 17.91 48.31 18.67 49C19.0363 49.3261 19.5096 49.5063 20 49.5063C20.4904 49.5063 20.9637 49.3261 21.33 49C22.09 48.31 40 32.2 40 21C40 9.4 31 0 20 0Z" fill="url(#paint2_linear_411_44)"/>
<path d="M28.3797 12.6587C27.816 12.0923 27.1425 11.653 26.4025 11.369C25.6625 11.085 24.8725 10.9627 24.0834 11.0099C23.2942 11.057 22.5236 11.2727 21.821 11.6429C21.1185 12.0131 20.4996 12.5297 20.0044 13.1593C19.5091 12.5297 18.8903 12.0131 18.1877 11.6429C17.4851 11.2727 16.7145 11.057 15.9254 11.0099C15.1363 10.9627 14.3463 11.085 13.6062 11.369C12.8662 11.653 12.1927 12.0923 11.629 12.6587C10.5858 13.7278 10 15.1761 10 16.686C10 18.1959 10.5858 19.6442 11.629 20.7133L19.5528 28.8072C19.6118 28.8683 19.6821 28.9168 19.7597 28.9499C19.8372 28.983 19.9204 29 20.0044 29C20.0884 29 20.1715 28.983 20.2491 28.9499C20.3266 28.9168 20.3969 28.8683 20.4559 28.8072L28.3797 20.7133C29.4178 19.6414 30 18.1941 30 16.686C30 15.1778 29.4178 13.7306 28.3797 12.6587Z" fill="#F7F7F7"/>
<defs>
<linearGradient id="paint0_linear_411_44" x1="-0.01" y1="24.75" x2="40.01" y2="24.75" gradientUnits="userSpaceOnUse">
<stop stop-color="#FFC123"/>
<stop offset="0.38" stop-color="#F69E1B"/>
<stop offset="1" stop-color="#E3660B"/>
</linearGradient>
<linearGradient id="paint1_linear_411_44" x1="905.201" y1="1081.22" x2="1654.8" y2="1081.22" gradientUnits="userSpaceOnUse">
<stop stop-color="#F2B20C"/>
<stop offset="0.14" stop-color="#EBBD44"/>
<stop offset="0.27" stop-color="#F2B20C"/>
<stop offset="0.4" stop-color="#F1982F"/>
<stop offset="0.53" stop-color="#F0E04B"/>
<stop offset="0.66" stop-color="#EEE16E"/>
<stop offset="0.78" stop-color="#EDD099"/>
<stop offset="0.85" stop-color="#ECDFB3"/>
</linearGradient>
<linearGradient id="paint2_linear_411_44" x1="-0.01" y1="24.75" x2="40.01" y2="24.75" gradientUnits="userSpaceOnUse">
<stop stop-color="#6923FF"/>
<stop offset="0.38" stop-color="#CA1BF6"/>
<stop offset="1" stop-color="#EA9FD9"/>
</linearGradient>
</defs>
</svg>
